HIERARCHY
ROOT Hips
{
  OFFSET 5.84602e-005 68.8428 3.50346
  CHANNELS 6 Xposition Yposition Zposition Zrotation Xrotation Yrotation
  JOINT Spine
  {
    OFFSET 0 8.597 -4.6522
    CHANNELS 3 Zrotation Xrotation Yrotation
    JOINT Spine1
    {
      OFFSET 0 7.8454 0.4098
      CHANNELS 3 Zrotation Xrotation Yrotation
      JOINT Spine2
      {
        OFFSET 0 9.7078 -2.1609
        CHANNELS 3 Zrotation Xrotation Yrotation
        JOINT Neck
        {
          OFFSET 0 21.8761 -0.4549
          CHANNELS 3 Zrotation Xrotation Yrotation
          JOINT Head
          {
            OFFSET 0 12.3537 3.3602
            CHANNELS 3 Zrotation Xrotation Yrotation
            End Site
            {
              OFFSET 0.0001 18.9506 0.5657
            }
          }
        }
        JOINT LeftShoulder
        {
          OFFSET 2.2086 21.1115 7.2329
          CHANNELS 3 Zrotation Xrotation Yrotation
          JOINT LeftArm
          {
            OFFSET 13.1193 3.0282 -4.8998
            CHANNELS 3 Zrotation Xrotation Yrotation
            JOINT LeftForeArm
            {
              OFFSET 27.4081 -0.0973053 -0.2375
              CHANNELS 3 Zrotation Xrotation Yrotation
              JOINT LeftHand
              {
                OFFSET 22.8641 0.0662994 -0.1369
                CHANNELS 3 Zrotation Xrotation Yrotation
                JOINT LeftHandIndex1
                {
                  OFFSET 8.8614 0.775009 2.4612
                  CHANNELS 3 Zrotation Xrotation Yrotation
                  JOINT LeftHandIndex2
                  {
                    OFFSET 3.3146 -0.808304 0.5841
                    CHANNELS 3 Zrotation Xrotation Yrotation
                    JOINT LeftHandIndex3
                    {
                      OFFSET 2.2628 -0.552002 0.3989
                      CHANNELS 3 Zrotation Xrotation Yrotation
                      End Site
                      {
                        OFFSET 1.6102 -0.4807 0.2612
                      }
                    }
                  }
                }
                JOINT LeftHandMiddle1
                {
                  OFFSET 8.9937 0.895004 0.2143
                  CHANNELS 3 Zrotation Xrotation Yrotation
                  JOINT LeftHandMiddle2
                  {
                    OFFSET 4.0984 0.0113983 -0.0242
                    CHANNELS 3 Zrotation Xrotation Yrotation
                    JOINT LeftHandMiddle3
                    {
                      OFFSET 2.2716 0.00689697 -0.0138001
                      CHANNELS 3 Zrotation Xrotation Yrotation
                      End Site
                      {
                        OFFSET 2.0404 -0.1441 0.0027
                      }
                    }
                  }
                }
                JOINT LeftHandRing1
                {
                  OFFSET 8.5234 0.597198 -2.0164
                  CHANNELS 3 Zrotation Xrotation Yrotation
                  JOINT LeftHandRing2
                  {
                    OFFSET 3.7188 -0.188293 -0.2328
                    CHANNELS 3 Zrotation Xrotation Yrotation
                    JOINT LeftHandRing3
                    {
                      OFFSET 2.1191 -0.106598 -0.1332
                      CHANNELS 3 Zrotation Xrotation Yrotation
                      End Site
                      {
                        OFFSET 1.8737 -0.2304 -0.0886
                      }
                    }
                  }
                }
                JOINT LeftHandPinky1
                {
                  OFFSET 7.9094 -0.601089 -3.4825
                  CHANNELS 3 Zrotation Xrotation Yrotation
                  JOINT LeftHandPinky2
                  {
                    OFFSET 2.2874 -0.477005 -0.6314
                    CHANNELS 3 Zrotation Xrotation Yrotation
                    JOINT LeftHandPinky3
                    {
                      OFFSET 1.6774 -0.349396 -0.4633
                      CHANNELS 3 Zrotation Xrotation Yrotation
                      End Site
                      {
                        OFFSET 1.4888 -0.4091 -0.3416
                      }
                    }
                  }
                }
                JOINT LeftHandThumb1
                {
                  OFFSET 1.833 -1.3875 1.3896
                  CHANNELS 3 Zrotation Xrotation Yrotation
                  JOINT LeftHandThumb2
                  {
                    OFFSET 3.4129 -1.121 2.5732
                    CHANNELS 3 Zrotation Xrotation Yrotation
                    JOINT LeftHandThumb3
                    {
                      OFFSET 2.2474 -0.804199 1.6192
                      CHANNELS 3 Zrotation Xrotation Yrotation
                      End Site
                      {
                        OFFSET 1.6527 -0.5689 1.1317
                      }
                    }
                  }
                }
              }
            }
          }
        }
        JOINT RightShoulder
        {
          OFFSET -2.2086 21.1115 7.2329
          CHANNELS 3 Zrotation Xrotation Yrotation
          JOINT RightArm
          {
            OFFSET -13.1216 3.0287 -4.9007
            CHANNELS 3 Zrotation Xrotation Yrotation
            JOINT RightForeArm
            {
              OFFSET -27.4081 -0.0973053 -0.2375
              CHANNELS 3 Zrotation Xrotation Yrotation
              JOINT RightHand
              {
                OFFSET -22.8641 0.0664063 -0.1369
                CHANNELS 3 Zrotation Xrotation Yrotation
                JOINT RightHandIndex1
                {
                  OFFSET -8.8614 0.774994 2.4612
                  CHANNELS 3 Zrotation Xrotation Yrotation
                  JOINT RightHandIndex2
                  {
                    OFFSET -3.3146 -0.808304 0.5841
                    CHANNELS 3 Zrotation Xrotation Yrotation
                    JOINT RightHandIndex3
                    {
                      OFFSET -2.2628 -0.552002 0.3989
                      CHANNELS 3 Zrotation Xrotation Yrotation
                      End Site
                      {
                        OFFSET -1.6102 -0.4807 0.2612
                      }
                    }
                  }
                }
                JOINT RightHandMiddle1
                {
                  OFFSET -8.9937 0.894989 0.2143
                  CHANNELS 3 Zrotation Xrotation Yrotation
                  JOINT RightHandMiddle2
                  {
                    OFFSET -4.0984 0.0113983 -0.0242
                    CHANNELS 3 Zrotation Xrotation Yrotation
                    JOINT RightHandMiddle3
                    {
                      OFFSET -2.2716 0.00691223 -0.0138001
                      CHANNELS 3 Zrotation Xrotation Yrotation
                      End Site
                      {
                        OFFSET -2.0404 -0.1441 0.0027
                      }
                    }
                  }
                }
                JOINT RightHandRing1
                {
                  OFFSET -8.5234 0.597198 -2.0164
                  CHANNELS 3 Zrotation Xrotation Yrotation
                  JOINT RightHandRing2
                  {
                    OFFSET -3.7188 -0.188309 -0.2328
                    CHANNELS 3 Zrotation Xrotation Yrotation
                    JOINT RightHandRing3
                    {
                      OFFSET -2.1191 -0.106598 -0.1332
                      CHANNELS 3 Zrotation Xrotation Yrotation
                      End Site
                      {
                        OFFSET -1.8737 -0.2304 -0.0886
                      }
                    }
                  }
                }
                JOINT RightHandPinky1
                {
                  OFFSET -7.9094 -0.601105 -3.4825
                  CHANNELS 3 Zrotation Xrotation Yrotation
                  JOINT RightHandPinky2
                  {
                    OFFSET -2.2874 -0.477005 -0.6314
                    CHANNELS 3 Zrotation Xrotation Yrotation
                    JOINT RightHandPinky3
                    {
                      OFFSET -1.6774 -0.349396 -0.4633
                      CHANNELS 3 Zrotation Xrotation Yrotation
                      End Site
                      {
                        OFFSET -1.4888 -0.4091 -0.3416
                      }
                    }
                  }
                }
                JOINT RightHandThumb1
                {
                  OFFSET -1.833 -1.38751 1.3896
                  CHANNELS 3 Zrotation Xrotation Yrotation
                  JOINT RightHandThumb2
                  {
                    OFFSET -3.41299 -1.12099 2.5732
                    CHANNELS 3 Zrotation Xrotation Yrotation
                    JOINT RightHandThumb3
                    {
                      OFFSET -2.24741 -0.804108 1.6192
                      CHANNELS 3 Zrotation Xrotation Yrotation
                      End Site
                      {
                        OFFSET -1.6527 -0.5689 1.1317
                      }
                    }
                  }
                }
              }
            }
          }
        }
      }
    }
  }
  JOINT RightUpLeg
  {
    OFFSET -9.1966 3.8861 -0.7581
    CHANNELS 3 Zrotation Xrotation Yrotation
    JOINT RightLeg
    {
      OFFSET -0.7359 -41.0265 0
      CHANNELS 3 Zrotation Xrotation Yrotation
      JOINT RightFoot
      {
        OFFSET 0 -40.2855 0
        CHANNELS 3 Zrotation Xrotation Yrotation
        JOINT RightToeBase
        {
          OFFSET 0 -5.6122 11.7359
          CHANNELS 3 Zrotation Xrotation Yrotation
          End Site
          {
            OFFSET 0 0 7.8731
          }
        }
      }
    }
  }
  JOINT LeftUpLeg
  {
    OFFSET 9.1965 3.8864 -0.7581
    CHANNELS 3 Zrotation Xrotation Yrotation
    JOINT LeftLeg
    {
      OFFSET 0.7359 -41.0268 0
      CHANNELS 3 Zrotation Xrotation Yrotation
      JOINT LeftFoot
      {
        OFFSET 0 -40.2855 0
        CHANNELS 3 Zrotation Xrotation Yrotation
        JOINT LeftToeBase
        {
          OFFSET 0 -5.6122 11.7359
          CHANNELS 3 Zrotation Xrotation Yrotation
          End Site
          {
            OFFSET 0 0 7.8731
          }
        }
      }
    }
  }
}
MOTION
Frames:	4
Frame Time:	0.0333333
39.8799 2.58087 6.40636 -180 -89.9981 -180 -0.0237919 10.2862 -0.157283 -0.0187975 20.5724 -0.318041 -0.0187974 20.5724 -0.318041 1.38887e-005 30.9999 -1.04837e-005 -2.51016e-007 13.997 2.6323e-008 -7.73476 -0.188525 8.98532 -71.0475 3.15142 28.826 33.4293 6.87927 -74.2591 1.81144 21.4138 -7.84241 -2.20945e-006 1.32977e-007 1.44602e-006 -2.05979e-007 -2.32975e-006 -2.14208e-008 -2.12377e-006 2.53573e-006 6.22108e-007 -2.20945e-006 1.32977e-007 1.44602e-006 -0.0145475 -8.53269e-005 4.51444e-007 -2.12384e-006 2.53565e-006 6.22432e-007 -2.20945e-006 1.32977e-007 1.44602e-006 -0.0187917 -0.00117962 6.89834e-005 -2.24253e-006 2.60886e-006 -2.22781e-007 -2.20945e-006 1.32977e-007 1.44602e-006 -0.0122677 -0.00324609 0.000674566 -2.1238e-006 2.53566e-006 6.22443e-007 -2.20945e-006 1.32977e-007 1.44602e-006 -2.05979e-007 -2.32975e-006 -2.14208e-008 -2.12377e-006 2.53573e-006 6.22108e-007 0.243494 -8.16481 5.2028 57.8188 30.3479 23.5412 40.8505 4.67074 67.714 -30.6068 3.53224 -8.45108 -1.13173e-007 -8.14869e-007 -3.8593e-006 8.88133e-007 2.85799e-006 -3.78604e-006 1.59028e-015 3.18055e-015 -0 -1.13173e-007 -8.14869e-007 -3.8593e-006 0.015059 -8.43601e-005 6.34861e-006 -3.18055e-015 0 -0 -1.13173e-007 -8.14869e-007 -3.8593e-006 0.0190119 -0.00118813 -6.56135e-005 -1.59028e-015 -1.59028e-015 3.18055e-015 -1.13173e-007 -8.14869e-007 -3.8593e-006 0.0122349 -0.00323837 -0.000670834 -1.59028e-015 5.56597e-015 6.36111e-015 -1.13173e-007 -8.14869e-007 -3.8593e-006 8.88133e-007 2.85799e-006 -3.78604e-006 1.59028e-015 3.18055e-015 -0 -41.2539 -42.0601 -7.32627 174.349 74.1472 -178.13 -30.5259 34.9542 52.5321 -1.81152e-008 -5.22176e-009 1.05037e-007 8.16937 4.50812 -25.4248 -5.63414 4.31815 0.178558 14.405 -5.94155 4.73518 3.59047e-006 2.08902e-007 -3.45682e-006 
39.8797 2.58084 6.40635 -180 -89.9981 -180 -0.0278186 10.103 -0.156029 -0.0278364 20.2061 -0.314512 -0.0278364 20.2061 -0.314512 -5.94036e-007 30.1432 4.38815e-007 5.37518e-008 13.4261 -3.39052e-009 -7.23896 0.0577087 9.22378 -71.4206 3.00523 28.9246 33.4052 6.96074 -74.4679 1.10718 21.8077 -7.35119 1.19049e-007 -7.08521e-008 8.4638e-007 -2.32986e-006 2.06151e-007 6.00178e-007 7.95139e-016 8.15017e-015 -1.59028e-015 1.19049e-007 -7.08521e-008 8.4638e-007 -0.0145842 -8.65707e-005 -3.53011e-006 -1.98785e-016 -6.80837e-015 1.59028e-015 1.19049e-007 -7.08521e-008 8.4638e-007 -0.0187092 -0.00117294 6.26931e-005 -7.95139e-016 -5.41688e-015 3.18055e-015 1.19049e-007 -7.08521e-008 8.4638e-007 -0.0123082 -0.00325908 0.000671257 -1.98785e-016 -3.926e-015 1.59028e-015 1.19049e-007 -7.08521e-008 8.4638e-007 -2.32986e-006 2.06151e-007 6.00178e-007 7.95139e-016 8.15017e-015 -1.59028e-015 0.671667 -7.6226 5.46075 57.5554 30.2114 23.6664 41.0036 4.22521 66.7416 -30.2149 3.27281 -8.73396 -8.82781e-032 1.59028e-015 3.18055e-015 3.18055e-015 1.59028e-015 -0 2.64834e-031 4.77083e-015 -3.18055e-015 -8.82781e-032 1.59028e-015 3.18055e-015 0.0149742 -9.18626e-005 3.33873e-006 1.59028e-015 1.59028e-015 3.18055e-015 -8.82781e-032 1.59028e-015 3.18055e-015 0.0189458 -0.00118371 -5.82628e-005 1.59028e-015 1.59028e-015 6.36111e-015 -8.82781e-032 1.59028e-015 3.18055e-015 0.012286 -0.00325501 -0.000674419 4.77083e-015 2.38542e-015 -0 -8.82781e-032 1.59028e-015 3.18055e-015 3.18055e-015 1.59028e-015 -0 2.64834e-031 4.77083e-015 -3.18055e-015 -40.1385 -42.1633 -5.96823 174.35 74.1469 -178.12 -29.2948 35.3133 51.8746 -1.80951e-008 -5.19927e-009 1.05042e-007 8.16964 4.50843 -25.4249 -5.63413 4.3174 0.178502 14.4049 -5.94123 4.73513 1.19682e-006 6.9634e-008 -1.15227e-006 
39.8796 2.58081 6.40634 -180 -89.9981 -180 -0.0318318 9.91983 -0.154809 -0.0368144 19.8397 -0.311096 -0.0368143 19.8397 -0.311096 3.72217e-007 29.2866 -5.28178e-007 -7.09581e-008 12.8549 -1.43303e-007 -6.74401 0.306108 9.46018 -71.7935 2.85839 29.0223 33.3815 7.04226 -74.6768 0.396959 22.1962 -6.8531 2.32995e-006 -2.06311e-007 -5.99744e-007 2.53627e-006 2.12364e-006 -5.77666e-007 2.32996e-006 -2.06311e-007 -5.99744e-007 2.32995e-006 -2.06311e-007 -5.99744e-007 -0.0146067 -8.67435e-005 -6.93402e-007 2.32995e-006 -2.06235e-007 -5.99772e-007 2.32995e-006 -2.06311e-007 -5.99744e-007 -0.0188242 -0.00118151 5.44215e-005 2.32995e-006 -2.06214e-007 -5.99802e-007 2.32995e-006 -2.06311e-007 -5.99744e-007 -0.0122582 -0.00324808 0.00068135 2.32993e-006 -2.06262e-007 -5.99832e-007 2.32995e-006 -2.06311e-007 -5.99744e-007 2.53627e-006 2.12364e-006 -5.77666e-007 2.32996e-006 -2.06311e-007 -5.99744e-007 1.09705 -7.07822 5.71441 57.2928 30.0745 23.7907 41.1492 3.77665 65.7698 -29.8243 3.0114 -9.01506 -1.59028e-015 -3.97569e-015 6.36111e-015 -1.59028e-015 -3.97569e-015 3.18055e-015 -3.18055e-015 -1.59028e-015 -3.18055e-015 -1.59028e-015 -3.97569e-015 6.36111e-015 0.0150025 -8.75448e-005 -1.90996e-006 -1.59028e-015 7.95139e-016 -3.18055e-015 -1.59028e-015 -3.97569e-015 6.36111e-015 0.019026 -0.00119467 -5.39272e-005 -8.82781e-032 -1.59028e-015 -3.18055e-015 -1.59028e-015 -3.97569e-015 6.36111e-015 0.0122277 -0.00322903 -0.000671542 -6.36111e-015 7.95139e-016 -0 -1.59028e-015 -3.97569e-015 6.36111e-015 -1.59028e-015 -3.97569e-015 3.18055e-015 -3.18055e-015 -1.59028e-015 -3.18055e-015 -39.0173 -42.2472 -4.60428 174.35 74.1465 -178.11 -28.0518 35.6612 51.2039 -5.27097e-007 -2.85697e-006 5.51857e-008 8.16965 4.50823 -25.4249 -5.63414 4.31783 0.178537 14.4048 -5.94146 4.73516 1.59028e-015 1.59028e-015 4.37326e-015 
39.8794 2.58079 6.40633 -180 -89.9981 -180 -0.0358319 9.73656 -0.153623 -0.045733 19.4733 -0.307792 -0.045733 19.4733 -0.307792 1.21086e-005 28.4302 -8.57806e-006 8.25478e-008 12.2837 3.68212e-008 -6.24994 0.556573 9.6945 -72.1662 2.71089 29.1191 33.358 7.1239 -74.8856 -0.319227 22.5792 -6.34826 -3.97569e-016 -3.13086e-015 4.77083e-015 -7.95139e-016 0 1.59028e-015 -9.93923e-016 -3.23025e-015 1.59028e-015 -3.97569e-016 -3.13086e-015 4.77083e-015 -0.0146125 -8.62709e-005 -7.02679e-007 7.95139e-016 1.14301e-015 1.59028e-015 -3.97569e-016 -3.13086e-015 4.77083e-015 -0.0187512 -0.00117675 5.18242e-005 3.97569e-016 2.38542e-015 1.59028e-015 -3.97569e-016 -3.13086e-015 4.77083e-015 -0.0123283 -0.00326475 0.000677317 -5.96354e-016 2.88238e-015 -4.77083e-015 -3.97569e-016 -3.13086e-015 4.77083e-015 -7.95139e-016 0 1.59028e-015 -9.93923e-016 -3.23025e-015 1.59028e-015 1.51969 -6.53183 5.96381 57.0308 29.9369 23.9141 41.2873 3.32536 64.7989 -29.435 2.74801 -9.29437 4.41391e-031 -3.97569e-015 6.36111e-015 8.82781e-032 -1.59028e-015 3.18055e-015 -1.59028e-015 -2.38542e-015 -0 4.41391e-031 -3.97569e-015 6.36111e-015 0.014965 -9.4438e-005 -3.38766e-006 3.18055e-015 -5.56597e-015 -0 4.41391e-031 -3.97569e-015 6.36111e-015 0.0189846 -0.00119154 -6.09407e-005 7.95139e-015 0 -3.18055e-015 4.41391e-031 -3.97569e-015 6.36111e-015 0.0122554 -0.00324184 -0.000675679 -1.59028e-015 -3.97569e-015 -3.18055e-015 4.41391e-031 -3.97569e-015 6.36111e-015 8.82781e-032 -1.59028e-015 3.18055e-015 -1.59028e-015 -2.38542e-015 -0 -37.8902 -42.3121 -3.23481 174.35 74.1452 -178.1 -26.7971 35.9972 50.5202 4.20204e-007 4.44764e-009 7.22223e-008 8.1698 4.50829 -25.4249 -5.63415 4.31765 0.178518 14.4047 -5.94142 4.73515 2.06103e-006 3.60834e-007 -2.54655e-007 
